<svg xmlns="http://www.w3.org/2000/svg" xmlns:xlink="http://www.w3.org/1999/xlink" viewBox="0,0,256,256" width="150px" height="150px" fill-rule="nonzero"><g fill="#ffffff" fill-rule="nonzero" stroke="none" stroke-width="1" stroke-linecap="butt" stroke-linejoin="miter" stroke-miterlimit="10" stroke-dasharray="" stroke-dashoffset="0" font-family="none" font-weight="none" font-size="none" text-anchor="none" style="mix-blend-mode: normal"><g transform="scale(3.2,3.2)"><path d="M15,10c-2.75,0 -5,2.25 -5,5v50c0,2.75 2.25,5 5,5h50c2.75,0 5,-2.25 5,-5v-50c0,-2.75 -2.25,-5 -5,-5zM15,12h50c1.66797,0 3,1.33203 3,3v50c0,1.66797 -1.33203,3 -3,3h-12.98047v-20.46094h7.41797l1.38672,-10.75391h-8.80469v-4.58594c0,-1.17578 0.18359,-1.97656 0.57031,-2.4375c0.38672,-0.46484 1.10938,-0.82422 2.76953,-0.82422l5.63281,-0.00391v-9.70312l-0.86719,-0.11719c-0.90625,-0.12109 -3.63672,-0.35156 -6.88672,-0.35156c-3.54687,0 -6.64453,1.09766 -8.83594,3.26563c-2.19531,2.16406 -3.42187,5.35156 -3.42187,9.30078v5.45703h-7.55859v10.75391h7.55859v20.46094h-25.98047c-1.66797,0 -3,-1.33203 -3,-3v-50c0,-1.66797 1.33203,-3 3,-3zM53.23828,20.76172c2.73828,0 4.69922,0.17969 5.75391,0.28906v5.88281l-3.63281,0.00391c-1.97656,0 -3.42578,0.5 -4.29687,1.53516c-0.875,1.03516 -1.04297,2.36328 -1.04297,3.72656v6.58594h8.52734l-0.87109,6.75391h-7.65625v22.46094h-7.03906v-22.46094h-7.55859v-6.75391h7.55859v-7.45703c0,-3.53906 1.0625,-6.13672 2.82813,-7.87891c1.76172,-1.74609 4.29297,-2.6875 7.42969,-2.6875zM15,61c-0.55078,0 -1,0.44922 -1,1c0,0.55078 0.44922,1 1,1c0.55078,0 1,-0.44922 1,-1c0,-0.55078 -0.44922,-1 -1,-1zM19,61c-0.55078,0 -1,0.44922 -1,1c0,0.55078 0.44922,1 1,1c0.55078,0 1,-0.44922 1,-1c0,-0.55078 -0.44922,-1 -1,-1zM23,61c-0.55078,0 -1,0.44922 -1,1c0,0.55078 0.44922,1 1,1c0.55078,0 1,-0.44922 1,-1c0,-0.55078 -0.44922,-1 -1,-1zM27,61c-0.55078,0 -1,0.44922 -1,1c0,0.55078 0.44922,1 1,1c0.55078,0 1,-0.44922 1,-1c0,-0.55078 -0.44922,-1 -1,-1zM31,61c-0.55078,0 -1,0.44922 -1,1c0,0.55078 0.44922,1 1,1c0.55078,0 1,-0.44922 1,-1c0,-0.55078 -0.44922,-1 -1,-1zM35,61c-0.55078,0 -1,0.44922 -1,1c0,0.55078 0.44922,1 1,1c0.55078,0 1,-0.44922 1,-1c0,-0.55078 -0.44922,-1 -1,-1zM39,61c-0.55078,0 -1,0.44922 -1,1c0,0.55078 0.44922,1 1,1c0.55078,0 1,-0.44922 1,-1c0,-0.55078 -0.44922,-1 -1,-1zM54,61c-0.55078,0 -1,0.44922 -1,1c0,0.55078 0.44922,1 1,1c0.55078,0 1,-0.44922 1,-1c0,-0.55078 -0.44922,-1 -1,-1zM58,61c-0.55078,0 -1,0.44922 -1,1c0,0.55078 0.44922,1 1,1c0.55078,0 1,-0.44922 1,-1c0,-0.55078 -0.44922,-1 -1,-1zM62,61c-0.55078,0 -1,0.44922 -1,1c0,0.55078 0.44922,1 1,1c0.55078,0 1,-0.44922 1,-1c0,-0.55078 -0.44922,-1 -1,-1zM66,61c-0.55078,0 -1,0.44922 -1,1c0,0.55078 0.44922,1 1,1c0.55078,0 1,-0.44922 1,-1c0,-0.55078 -0.44922,-1 -1,-1z"></path></g></g></svg>